<?xml version="1.0" encoding="UTF-8"?>
<svg version="1.1" xmlns="http://www.w3.org/2000/svg" width="359" height="367">
<path d="M0 0 C118.47 0 236.94 0 359 0 C359 121.11 359 242.22 359 367 C240.53 367 122.06 367 0 367 C0 245.89 0 124.78 0 0 Z " fill="#3F91D3" transform="translate(0,0)"/>
<path d="M0 0 C0.71655762 0.11827148 1.43311523 0.23654297 2.17138672 0.35839844 C27.44181371 4.64558938 52.17499727 14.56108589 72 31 C72.80775879 31.65983887 72.80775879 31.65983887 73.63183594 32.33300781 C77.48595574 35.48477225 81.26166362 38.71164855 85 42 C86.05960937 42.93005859 86.05960937 42.93005859 87.140625 43.87890625 C114.47804804 69.55081402 130.61258131 108.69237016 132.11206055 145.77099609 C132.88360575 183.53964981 123.71150312 221.41343844 99 251 C98.14991974 252.06160258 97.30100717 253.12414101 96.453125 254.1875 C79.85616248 274.71660055 57.45572484 292.18871638 32 300 C27.14248078 289.62465276 22.32742813 279.23070024 17.5625 268.8125 C17.22162354 268.06733124 16.88074707 267.32216248 16.52954102 266.55441284 C9.255265 250.64078094 2.14259086 234.65706226 -4.93847656 218.65673828 C-8.22138459 211.23933785 -11.51192351 203.82532528 -14.80419922 196.41207886 C-15.85341376 194.04862503 -16.90137541 191.68461864 -17.94921875 189.32055664 C-18.58848903 187.88034773 -19.22780924 186.44016098 -19.8671875 185 C-20.156008 184.34756821 -20.44482849 183.69513641 -20.74240112 183.02293396 C-21.83631717 180.56148985 -22.91415214 178.14924268 -24.25830078 175.8125 C-25.2307853 173.43602698 -24.82041922 172.40482347 -24 170 C-22.05854459 167.78386919 -20.10856799 165.72996742 -18.01147461 163.67089844 C-17.38710007 163.04608582 -16.76272552 162.42127319 -16.11943054 161.77752686 C-14.05409966 159.71428582 -11.97834614 157.66187359 -9.90234375 155.609375 C-8.46822453 154.18085101 -7.03476627 152.75166319 -5.60194397 151.32183838 C-1.82900267 147.56035146 1.95286103 143.80796045 5.7366333 140.05737305 C9.59611202 136.22858218 13.44711224 132.39128479 17.29882812 128.5546875 C24.85759679 121.02809348 32.42581567 113.51107845 40 106 C44.28747061 108.00393859 46.70181059 110.79031893 49.8046875 114.3203125 C52.66389502 116.50796239 54.48443447 116.12891806 58 116 C59.76064443 110.86314721 61.52044946 105.72600782 63.27954102 100.58862305 C63.87567531 98.84798784 64.47202262 97.10742556 65.06860352 95.36694336 C66.5064972 91.17177666 67.94114831 86.97556976 69.36865234 82.77685547 C70.40933595 79.71758265 71.46685222 76.66517086 72.54150391 73.61767578 C73.00301516 72.2881156 73.46444602 70.95852752 73.92578125 69.62890625 C74.52966675 67.91489624 74.52966675 67.91489624 75.14575195 66.16625977 C76.0217819 62.91926567 76.31416984 60.34441774 76 57 C74.07893416 54.67429942 74.07893416 54.67429942 70.734375 54.5625 C64.19378489 54.73911359 58.24443492 57.60951827 52.25 60 C50.96162774 60.50220388 49.67280465 61.00325266 48.38354492 61.50317383 C39.83193015 64.83089234 31.3038699 68.22721905 22.81542969 71.71289062 C17.20886876 74 17.20886876 74 15 74 C14.57971073 76.27512091 14.57971073 76.27512091 15 79 C17.17394544 81.77926726 17.17394544 81.77926726 20 84.3125 C21.3921875 85.63701172 21.3921875 85.63701172 22.8125 86.98828125 C23.534375 87.65214844 24.25625 88.31601563 25 89 C23.34341281 93.20938315 20.24812419 96.09086601 17.13256836 99.25317383 C16.532258 99.86983917 15.93194763 100.48650452 15.31344604 101.12185669 C13.32843466 103.15641782 11.33528997 105.18270551 9.33984375 107.20703125 C8.65785982 107.89966253 7.97587589 108.59229382 7.27322578 109.30591393 C3.66434606 112.96817924 0.04819762 116.62310796 -3.57299805 120.27319336 C-6.56776077 123.29467177 -9.54731612 126.33000674 -12.5144043 129.37866211 C-16.09966169 133.06247219 -19.70877525 136.72119802 -23.33651543 140.3631649 C-24.71373133 141.75381366 -26.08241705 143.15296475 -27.44221687 144.56064796 C-29.34762336 146.5292784 -31.28218116 148.46400732 -33.22680664 150.39379883 C-33.78040359 150.98020645 -34.33400055 151.56661407 -34.90437317 152.17079163 C-37.32022054 154.51214984 -38.87060058 155.92869536 -42.30691433 156.14564705 C-44.60111164 155.91027822 -46.75836197 155.53586704 -49 155 C-50.09111084 154.74637695 -51.18222168 154.49275391 -52.30639648 154.23144531 C-53.82342163 153.78430176 -53.82342163 153.78430176 -55.37109375 153.328125 C-56.52416016 152.99296875 -57.67722656 152.6578125 -58.86523438 152.3125 C-60.04408203 151.961875 -61.22292969 151.61125 -62.4375 151.25 C-64.76928994 150.56688408 -67.10132569 149.88460676 -69.43359375 149.203125 C-70.65288574 148.84557129 -71.87217773 148.48801758 -73.12841797 148.11962891 C-77.21230975 146.93121549 -81.31019106 145.79555647 -85.41015625 144.6640625 C-92.47236377 142.71368487 -99.52029982 140.71672077 -106.5625 138.6953125 C-108.06805199 138.26325249 -108.06805199 138.26325249 -109.60401917 137.82246399 C-111.67557235 137.22780948 -113.74710012 136.63306644 -115.81860352 136.03823853 C-139.08388086 129.35194966 -139.08388086 129.35194966 -162.453125 123.04150391 C-168.05039675 121.57242228 -173.53487255 119.90428663 -179 118 C-177.87231135 110.68263097 -176.22858978 103.90705118 -173.5625 97 C-173.21687012 96.1028125 -172.87124023 95.205625 -172.51513672 94.28125 C-156.83821824 55.09927208 -124.89454577 25.6395488 -86.61669922 9.07519531 C-74.48768788 4.0914142 -61.95070475 0.9154464 -49 -1 C-48.12085938 -1.13148437 -47.24171875 -1.26296875 -46.3359375 -1.3984375 C-31.09025596 -3.18920009 -15.09601522 -2.62126697 0 0 Z " fill="#E8EDF5" transform="translate(205,37)"/>
<path d="M0 0 C118.47 0 236.94 0 359 0 C359 121.11 359 242.22 359 367 C302.57 367 246.14 367 188 367 C188 366.67 188 366.34 188 366 C188.88014771 365.90295776 188.88014771 365.90295776 189.77807617 365.80395508 C236.95875549 360.46801765 281.38181089 342.90823414 312 305 C312.60714844 304.28070313 313.21429688 303.56140625 313.83984375 302.8203125 C333.10297091 279.55198068 344.88806828 253.41297561 351 224 C351.24991699 222.84274414 351.24991699 222.84274414 351.50488281 221.66210938 C355.89360844 200.81793423 355.48811803 178.78250399 351 158 C350.82307617 157.14857422 350.64615234 156.29714844 350.46386719 155.41992188 C341.26615953 111.73478186 316.22573599 72.51551033 279.04492188 47.32910156 C257.03009042 33.02051245 232.8850565 24.08426701 207 20 C205.92105469 19.79503906 204.84210938 19.59007813 203.73046875 19.37890625 C160.27807546 12.04410179 113.23782309 23.6273177 77.3125 48.8125 C39.71276468 75.8254846 13.57290773 115.93622293 6 162 C5.79761719 163.05316406 5.59523438 164.10632813 5.38671875 165.19140625 C-1.66466592 207.35580844 9.49355877 254.35392621 33.95703125 289.33984375 C36.85060987 293.32505177 39.891667 297.18090486 43 301 C43.4964502 301.61601074 43.99290039 302.23202148 44.50439453 302.86669922 C67.98893907 331.81134301 100.94934866 351.82361578 137 361 C138.21945313 361.31582031 139.43890625 361.63164062 140.6953125 361.95703125 C150.34456201 364.22941831 160.14660279 365.10710153 170 366 C170 366.33 170 366.66 170 367 C113.9 367 57.8 367 0 367 C0 245.89 0 124.78 0 0 Z " fill="#F2F4FA" transform="translate(0,0)"/>
<path d="M0 0 C8.42888125 1.27481375 16.3350135 3.51104531 24.4375 6.125 C27.01092806 6.94014431 29.58483523 7.75339332 32.16015625 8.5625 C32.81161621 8.76747101 33.46307617 8.97244202 34.13427734 9.18362427 C41.87684548 11.6071315 49.68066233 13.81315769 57.49389648 15.99658203 C64.63257806 18.00210901 71.72448925 20.13148967 78.8125 22.30859375 C85.93945255 24.49694579 93.08036206 26.60885949 100.26333618 28.6060791 C104.36028936 29.74534747 108.45067177 30.90732604 112.54101562 32.07006836 C114.62642676 32.65663151 116.71476758 33.23286148 118.80566406 33.79956055 C121.89212545 34.63914078 124.96552816 35.51677396 128.0390625 36.40234375 C128.96917145 36.645327 129.8992804 36.88831024 130.85757446 37.13865662 C135.43554776 38.49716954 138.26068406 39.66569278 140.8996582 43.75683594 C141.63329648 45.15412899 142.33476727 46.56887513 143 48 C143.31241638 48.61851334 143.62483276 49.23702667 143.94671631 49.87428284 C144.86361901 51.72836117 145.72078285 53.60070564 146.56640625 55.48828125 C146.88206543 56.18090561 147.19772461 56.87352997 147.52294922 57.58714294 C148.54167572 59.82646061 149.55222605 62.06935797 150.5625 64.3125 C151.27231288 65.8774566 151.98252251 67.44223329 152.69311523 69.00683594 C157.49588279 79.59774284 162.24507156 90.21308214 166.92993164 100.85668945 C170.1783849 108.2239634 173.5570019 115.5260773 176.97622681 122.81524658 C180.17602226 129.64367703 183.35660842 136.48109166 186.53588867 143.3190918 C187.39471994 145.16470032 188.25476772 147.0097432 189.1159668 148.85424805 C190.37855098 151.55897021 191.6369529 154.26560366 192.89453125 156.97265625 C193.2778511 157.79145767 193.66117096 158.61025909 194.05610657 159.45387268 C195.96678987 163.57806162 197.66995357 167.64207774 199 172 C197.06333386 172.46184407 195.125607 172.91924026 193.1875 173.375 C192.10855469 173.63023437 191.02960938 173.88546875 189.91796875 174.1484375 C188.61228991 174.43371762 187.30626967 174.71743757 186 175 C185.24984619 175.17644043 184.49969238 175.35288086 183.72680664 175.53466797 C174.88035199 177.41638876 166.06532995 177.39631314 157.0625 177.375 C156.24085358 177.37478851 155.41920715 177.37457703 154.57266235 177.37435913 C141.96772225 177.34195805 130.16289579 176.53359852 118 173 C116.62894369 172.63397433 115.25785023 172.26808776 113.88671875 171.90234375 C91.13157213 165.5426707 68.75876048 153.75876048 52 137 C66.19 136.67 80.38 136.34 95 136 C92.36 133.03 89.72 130.06 87 127 C84.94584572 121.8646143 84.3671072 119.17082719 86 114 C88.51660771 110.87124447 91.08974125 108.1500761 95 107 C99.75017143 107.25447347 102.35273228 108.03259578 106 111 C107.39533117 108.92796315 108.76549477 106.84534304 110.125 104.75 C110.52332031 104.16347656 110.92164063 103.57695312 111.33203125 102.97265625 C112.61883741 101.04078725 112.61883741 101.04078725 114 98 C113.19641962 95.55888025 112.4111435 94.31323029 110.36326599 92.75305176 C105.19572686 90.16926187 100.96776716 89.40767746 95.22265625 89.46875 C94.41187119 89.4649231 93.60108612 89.46109619 92.76573181 89.45715332 C91.06231433 89.45444882 89.35885427 89.46170691 87.65551758 89.47851562 C85.07212107 89.49992028 82.4915137 89.47868044 79.90820312 89.453125 C67.90431813 89.3823495 67.90431813 89.3823495 57 94 C56.20207031 94.44601562 55.40414062 94.89203125 54.58203125 95.3515625 C47.89681818 100.16255468 43.56924798 105.97878463 42.1875 114.203125 C41.64218666 118.12608661 41.28423121 122.05016628 41 126 C36.18979366 122.61503998 33.11711579 118.48285154 29.75 113.75 C28.89510986 112.55225952 28.89510986 112.55225952 28.02294922 111.33032227 C5.16360288 78.80516108 -5.1134617 39.62932818 0 0 Z " fill="#F6F8FB" transform="translate(22,171)"/>
<path d="M0 0 C1.17691406 0.08765625 2.35382813 0.1753125 3.56640625 0.265625 C5.41298828 0.4203125 5.41298828 0.4203125 7.296875 0.578125 C8.51246094 0.66578125 9.72804687 0.7534375 10.98046875 0.84375 C25.99210395 2.0224171 25.99210395 2.0224171 30.109375 5.640625 C31.046875 7.828125 31.046875 7.828125 30.421875 10.390625 C29.046875 12.828125 29.046875 12.828125 27.421875 14.265625 C25.72936168 15.87458337 25.72936168 15.87458337 25.796875 18.953125 C25.72719322 21.72284058 25.72719322 21.72284058 27.046875 22.828125 C27.79453125 22.77011719 28.5421875 22.71210937 29.3125 22.65234375 C33.64696759 22.45377521 37.2683777 22.48152102 40.85449219 25.19677734 C53.66639948 37.27232839 53.66639948 37.27232839 54.25805664 42.80175781 C54.24121826 43.53749023 54.22437988 44.27322266 54.20703125 45.03125 C54.1905957 46.25521484 54.1905957 46.25521484 54.17382812 47.50390625 C54.15255859 48.35339844 54.13128906 49.20289063 54.109375 50.078125 C53.93511897 56.97325202 53.93511897 56.97325202 54.66796875 63.8125 C54.79300781 64.80765625 54.91804688 65.8028125 55.046875 66.828125 C52.5321591 69.3428409 50.96073677 69.08861115 47.52539062 69.1015625 C46.81060547 69.09382813 46.09582031 69.08609375 45.359375 69.078125 C44.66392578 69.08585937 43.96847656 69.09359375 43.25195312 69.1015625 C38.55942143 69.0840367 34.42926339 68.66641052 30.046875 66.828125 C27.68359375 64.04296875 27.68359375 64.04296875 25.734375 60.765625 C23.53441652 56.62042266 23.53441652 56.62042266 20.046875 53.828125 C18.67344669 53.7591778 17.29685398 53.74344792 15.921875 53.765625 C14.00375 53.7965625 14.00375 53.7965625 12.046875 53.828125 C12.09139919 56.15704402 12.09139919 56.15704402 13.046875 58.828125 C14.078125 59.6325 15.109375 60.436875 16.171875 61.265625 C17.120625 62.11125 18.069375 62.956875 19.046875 63.828125 C18.73842787 68.5370845 17.19755317 72.98798553 15.734375 77.453125 C15.53392578 78.10796875 15.33347656 78.7628125 15.12695312 79.4375 C13.79836551 83.50141506 12.32641307 86.07303332 9.046875 88.828125 C4.0452648 87.5410657 0.28455408 85.16498311 -3.98461914 82.38452148 C-14.46327313 75.37368248 -14.46327313 75.37368248 -26.73828125 74.69921875 C-28.953125 74.828125 -28.953125 74.828125 -30.62109375 73.671875 C-32.19367112 71.49516966 -33.1990976 69.38196164 -34.203125 66.890625 C-34.73679687 65.60865234 -34.73679687 65.60865234 -35.28125 64.30078125 C-36.02090519 61.57867812 -36.00798324 60.4144018 -34.953125 57.828125 C-33.4400155 55.66512257 -31.70942233 53.80958866 -29.953125 51.828125 C-30.98542033 48.81726362 -31.86962477 46.91653701 -34.078125 44.578125 C-37.4033797 39.70108478 -36.35117356 35.03640712 -35.33984375 29.42578125 C-33.359375 20.234375 -33.359375 20.234375 -30.953125 17.828125 C-28.16040476 17.48285912 -25.39294387 17.38556093 -22.58203125 17.26953125 C-19.48590442 16.74967637 -18.82681202 16.29157979 -16.953125 13.828125 C-14.87212093 10.76955248 -12.88473037 7.65875839 -10.890625 4.54296875 C-7.59335978 -0.07719118 -5.39781133 -0.41096788 0 0 Z " fill="#B5CADD" transform="translate(113.953125,67.171875)"/>
<path d="M0 0 C4.50450805 2.712188 7.92311077 7.26443329 9.85546875 12.1171875 C10.76014162 19.31647898 10.72440594 25.59008844 6.28125 31.53515625 C2.31155121 35.93989052 -1.81472615 38.68914081 -7.7578125 39.453125 C-14.11606457 39.54514023 -18.92097841 38.9172603 -24.14453125 35.1171875 C-26.45703125 32.7421875 -26.45703125 32.7421875 -28.14453125 30.1171875 C-29.01078125 28.8178125 -29.01078125 28.8178125 -29.89453125 27.4921875 C-31.86315656 22.17689918 -32.30680521 16.46028732 -30.41796875 11.02734375 C-24.06445106 -0.77573586 -12.25983474 -5.13885289 0 0 Z " fill="#3F91D2" transform="translate(111.14453125,214.8828125)"/>
<path d="M0 0 C2 2 2 2 2.32836914 4.72753906 C1.93402198 8.65752366 0.72582361 10.94894813 -1.25390625 14.359375 C-1.59244125 14.94865784 -1.93097626 15.53794067 -2.2797699 16.14508057 C-2.9975974 17.38897102 -3.72161661 18.62930649 -4.45141602 19.86621094 C-5.54692886 21.72359988 -6.62365334 23.59082197 -7.69726562 25.4609375 C-17.62170712 42.62170712 -17.62170712 42.62170712 -22 47 C-24.109375 47.4765625 -24.109375 47.4765625 -27 47 C-29.69937649 45.06900273 -31.94416418 42.75259419 -34.25 40.375 C-34.88679688 39.75753906 -35.52359375 39.14007813 -36.1796875 38.50390625 C-39.75117615 34.89442304 -42.02330011 32.34349287 -42 27 C-40.5625 24.625 -40.5625 24.625 -39 23 C-34.23211317 23.19460763 -31.83050447 23.81728647 -28.25390625 27.0546875 C-27.63974854 27.60366699 -27.02559082 28.15264648 -26.39282227 28.71826172 C-25.93319092 29.14123535 -25.47355957 29.56420898 -25 30 C-24.70343506 29.48203857 -24.40687012 28.96407715 -24.10131836 28.43041992 C-6.73672405 -1.85259911 -6.73672405 -1.85259911 0 0 Z " fill="#4091D3" transform="translate(155,262)"/>
</svg>
