<?xml version="1.0" encoding="UTF-8"?>
<svg xmlns="http://www.w3.org/2000/svg" viewBox="-8 -8 216 216">
  <defs>
    <linearGradient id="g1" x1="0" x2="1" y1="0" y2="1">
      <stop offset="0" stop-color="#4A90E2"/>
      <stop offset="1" stop-color="#2B6CB0"/>
    </linearGradient>
  </defs>

  <!-- OUTER CIRCLE -->
  <circle cx="100" cy="100" r="92" fill="none" stroke="url(#g1)" stroke-width="12"/>

  <!-- DIVIDERS (3 modules) -->
  <path d="M100 100 L100 12" stroke="#4A90E2" stroke-width="10" stroke-linecap="round"/>
  <path d="M100 100 L27 170" stroke="#4A90E2" stroke-width="10" stroke-linecap="round"/>
  <path d="M100 100 L173 170" stroke="#4A90E2" stroke-width="10" stroke-linecap="round"/>

  <!-- SECTOR FILLS -->
  <path d="M100 12 A88 88 0 0 1 173 170 L100 100 Z" fill="#EEF3FA"/>
  <path d="M27 170 A88 88 0 0 1 100 12 L100 100 Z" fill="#E9EEF5"/>
  <path d="M173 170 A88 88 0 0 1 27 170 L100 100 Z" fill="#F3F6FB"/>

  <!-- ICON 1: MAP (Análisis Territorial) -->
  <path d="M138 58 l12 6 -6 10 8 7 -10 8 -9 -5 -8 5 -9 -7 7 -9 -5 -10 10 -7 10 2z"
        fill="#4A90E2" opacity="0.9"/>

  <!-- ICON 2: UP ARROW (Ganar Todo) -->
  <path d="M105 105 L160 150" stroke="#2B6CB0" stroke-width="10" stroke-linecap="round"/>
  <polygon points="160,150 148,148 156,138" fill="#2B6CB0"/>

  <!-- ICON 3: PERSON + CHECK (Campo) -->
  <circle cx="70" cy="132" r="12" fill="#4A90E2"/>
  <path d="M56 160 q14 -12 28 0 v10 h-28z" fill="#4A90E2"/>
  <path d="M86 152 l8 8 14 -18" fill="none" stroke="#2B6CB0" stroke-width="7" stroke-linecap="round" stroke-linejoin="round"/>
</svg>
